<svg width="20" height="20" viewBox="0 0 13 13" fill="none" xmlns="http://www.w3.org/2000/svg">
<path fill-rule="evenodd" clip-rule="evenodd" d="M6.5 13C10.0899 13 13 10.0899 13 6.5C13 2.91015 10.0899 0 6.5 0C2.91015 0 0 2.91015 0 6.5C0 10.0899 2.91015 13 6.5 13ZM5.10277 4.24098C4.86479 4.00301 4.47896 4.00301 4.24098 4.24098C4.00301 4.47896 4.00301 4.86479 4.24098 5.10277L5.63821 6.5L4.24098 7.89723C4.00301 8.13521 4.00301 8.52104 4.24098 8.75902C4.47896 8.99699 4.86479 8.99699 5.10277 8.75902L6.5 7.36179L7.89723 8.75902C8.13521 8.99699 8.52104 8.99699 8.75902 8.75902C8.99699 8.52104 8.99699 8.13521 8.75902 7.89723L7.36179 6.5L8.75902 5.10277C8.99699 4.86479 8.99699 4.47896 8.75902 4.24098C8.52104 4.00301 8.13521 4.00301 7.89723 4.24098L6.5 5.63821L5.10277 4.24098Z" fill="#E30B59"/>
</svg>
